<svg width="200" height="200" viewBox="0 0 200 200" fill="none" xmlns="http://www.w3.org/2000/svg">
<path d="M0 50C0 22.3858 22.3858 0 50 0H100V100H0V50Z" fill="#EF0D4A"/>
<path d="M100 0H150C177.614 0 200 22.3858 200 50V50C200 77.6142 177.614 100 150 100H100V0Z" fill="#FFE8FC"/>
<path d="M100 150C100 122.386 122.386 100 150 100V100C177.614 100 200 122.386 200 150V150C200 177.614 177.614 200 150 200V200C122.386 200 100 177.614 100 150V150Z" fill="#FEDE02"/>
<path d="M0 100H100V150C100 177.614 77.6142 200 50 200V200C22.3858 200 0 177.614 0 150V100Z" fill="#0B4291"/>
</svg>
