<svg width="100" height="100" viewBox="0 0 100 100" fill="none" xmlns="http://www.w3.org/2000/svg">
<rect width="100" height="100" fill="#1129FF"/>
<path fill-rule="evenodd" clip-rule="evenodd" d="M20 35H5V37C12.1797 37 18 42.8203 18 50C18 57.1797 12.1797 63 5 63V65H20V35Z" fill="white"/>
<path d="M5 35V34.9H4.9V35H5ZM20 35H20.1V34.9H20V35ZM5 37H4.9V37.1H5V37ZM5 63V62.9H4.9V63H5ZM5 65H4.9V65.1H5V65ZM20 65V65.1H20.1V65H20ZM5 35.1H20V34.9H5V35.1ZM5.1 37V35H4.9V37H5.1ZM5 37.1C12.1245 37.1 17.9 42.8755 17.9 50H18.1C18.1 42.7651 12.2349 36.9 5 36.9V37.1ZM17.9 50C17.9 57.1245 12.1245 62.9 5 62.9V63.1C12.2349 63.1 18.1 57.2349 18.1 50H17.9ZM5.1 65V63H4.9V65H5.1ZM20 64.9H5V65.1H20V64.9ZM19.9 35V65H20.1V35H19.9Z" fill="#EEEEEE"/>
<path fill-rule="evenodd" clip-rule="evenodd" d="M35 65H20V67C27.1797 67 33 72.8203 33 80H35V65Z" fill="white"/>
<path d="M20 65V64.9H19.9V65H20ZM35 65H35.1V64.9H35V65ZM20 67H19.9V67.1H20V67ZM33 80H32.9V80.1H33V80ZM35 80V80.1H35.1V80H35ZM20 65.1H35V64.9H20V65.1ZM20.1 67V65H19.9V67H20.1ZM20 67.1C27.1245 67.1 32.9 72.8755 32.9 80H33.1C33.1 72.7651 27.2349 66.9 20 66.9V67.1ZM35 79.9H33V80.1H35V79.9ZM34.9 65V80H35.1V65H34.9Z" fill="#EEEEEE"/>
<path fill-rule="evenodd" clip-rule="evenodd" d="M20 33C27.1797 33 33 27.1797 33 20H35V35H20V33Z" fill="white"/>
<path d="M33 20V19.9H32.9V20H33ZM20 33V32.9H19.9V33H20ZM35 20H35.1V19.9H35V20ZM35 35V35.1H35.1V35H35ZM20 35H19.9V35.1H20V35ZM32.9 20C32.9 27.1245 27.1245 32.9 20 32.9V33.1C27.2349 33.1 33.1 27.2349 33.1 20H32.9ZM33 20.1H35V19.9H33V20.1ZM34.9 20V35H35.1V20H34.9ZM35 34.9H20V35.1H35V34.9ZM20.1 35V33H19.9V35H20.1Z" fill="#EEEEEE"/>
<path fill-rule="evenodd" clip-rule="evenodd" d="M37 20H35V35H50V33C42.8203 33 37 27.1797 37 20Z" fill="white"/>
<path d="M35 20V19.9H34.9V20H35ZM37 20H37.1V19.9H37V20ZM35 35H34.9V35.1H35V35ZM50 35V35.1H50.1V35H50ZM50 33H50.1V32.9H50V33ZM35 20.1H37V19.9H35V20.1ZM35.1 35V20H34.9V35H35.1ZM50 34.9H35V35.1H50V34.9ZM49.9 33V35H50.1V33H49.9ZM50 32.9C42.8755 32.9 37.1 27.1245 37.1 20H36.9C36.9 27.2349 42.7651 33.1 50 33.1V32.9Z" fill="#EEEEEE"/>
<path fill-rule="evenodd" clip-rule="evenodd" d="M50 33C57.1797 33 63 27.1797 63 20H65V35H50V33Z" fill="white"/>
<path d="M63 20V19.9H62.9V20H63ZM50 33V32.9H49.9V33H50ZM65 20H65.1V19.9H65V20ZM65 35V35.1H65.1V35H65ZM50 35H49.9V35.1H50V35ZM62.9 20C62.9 27.1245 57.1245 32.9 50 32.9V33.1C57.2349 33.1 63.1 27.2349 63.1 20H62.9ZM63 20.1H65V19.9H63V20.1ZM64.9 20V35H65.1V20H64.9ZM65 34.9H50V35.1H65V34.9ZM50.1 35V33H49.9V35H50.1Z" fill="#EEEEEE"/>
<path fill-rule="evenodd" clip-rule="evenodd" d="M67 20H65V35H80V33C72.8203 33 67 27.1797 67 20Z" fill="white"/>
<path d="M65 20V19.9H64.9V20H65ZM67 20H67.1V19.9H67V20ZM65 35H64.9V35.1H65V35ZM80 35V35.1H80.1V35H80ZM80 33H80.1V32.9H80V33ZM65 20.1H67V19.9H65V20.1ZM65.1 35V20H64.9V35H65.1ZM80 34.9H65V35.1H80V34.9ZM79.9 33V35H80.1V33H79.9ZM80 32.9C72.8755 32.9 67.1 27.1245 67.1 20H66.9C66.9 27.2349 72.7651 33.1 80 33.1V32.9Z" fill="#EEEEEE"/>
<path fill-rule="evenodd" clip-rule="evenodd" d="M50 65H35V80H37C37 72.8203 42.8203 67 50 67V65Z" fill="white"/>
<path d="M35 65V64.9H34.9V65H35ZM50 65H50.1V64.9H50V65ZM35 80H34.9V80.1H35V80ZM37 80V80.1H37.1V80H37ZM50 67V67.1H50.1V67H50ZM35 65.1H50V64.9H35V65.1ZM35.1 80V65H34.9V80H35.1ZM37 79.9H35V80.1H37V79.9ZM37.1 80C37.1 72.8755 42.8755 67.1 50 67.1V66.9C42.7651 66.9 36.9 72.7651 36.9 80H37.1ZM49.9 65V67H50.1V65H49.9Z" fill="#EEEEEE"/>
<path fill-rule="evenodd" clip-rule="evenodd" d="M65 65H50V67C57.1797 67 63 72.8203 63 80H65V65Z" fill="white"/>
<path d="M50 65V64.9H49.9V65H50ZM65 65H65.1V64.9H65V65ZM50 67H49.9V67.1H50V67ZM63 80H62.9V80.1H63V80ZM65 80V80.1H65.1V80H65ZM50 65.1H65V64.9H50V65.1ZM50.1 67V65H49.9V67H50.1ZM50 67.1C57.1245 67.1 62.9 72.8755 62.9 80H63.1C63.1 72.7651 57.2349 66.9 50 66.9V67.1ZM65 79.9H63V80.1H65V79.9ZM64.9 65V80H65.1V65H64.9Z" fill="#EEEEEE"/>
<path fill-rule="evenodd" clip-rule="evenodd" d="M80 65H65V80H67C67 72.8203 72.8203 67 80 67V65Z" fill="white"/>
<path d="M65 65V64.9H64.9V65H65ZM80 65H80.1V64.9H80V65ZM65 80H64.9V80.1H65V80ZM67 80V80.1H67.1V80H67ZM80 67V67.1H80.1V67H80ZM65 65.1H80V64.9H65V65.1ZM65.1 80V65H64.9V80H65.1ZM67 79.9H65V80.1H67V79.9ZM67.1 80C67.1 72.8755 72.8755 67.1 80 67.1V66.9C72.7651 66.9 66.9 72.7651 66.9 80H67.1ZM79.9 65V67H80.1V65H79.9Z" fill="#EEEEEE"/>
<path fill-rule="evenodd" clip-rule="evenodd" d="M20 65H35V63C27.8203 63 22 57.1797 22 50C22 42.8203 27.8203 37 35 37L35 35H20L20 65Z" fill="white"/>
<path d="M35 65V65.1H35.1V65H35ZM20 65H19.9V65.1H20V65ZM35 63H35.1V62.9H35V63ZM35 37V37.1H35.1V37H35ZM35 35H35.1V34.9H35V35ZM20 35V34.9H19.9V35H20ZM35 64.9H20V65.1H35V64.9ZM34.9 63V65H35.1V63H34.9ZM35 62.9C27.8755 62.9 22.1 57.1245 22.1 50H21.9C21.9 57.2349 27.7651 63.1 35 63.1V62.9ZM22.1 50C22.1 42.8755 27.8755 37.1 35 37.1V36.9C27.7651 36.9 21.9 42.7651 21.9 50H22.1ZM34.9 35L34.9 37H35.1L35.1 35H34.9ZM20 35.1H35V34.9H20V35.1ZM20.1 65L20.1 35H19.9L19.9 65H20.1Z" fill="#EEEEEE"/>
<path fill-rule="evenodd" clip-rule="evenodd" d="M80 35H65V37C72.1797 37 78 42.8203 78 50C78 57.1797 72.1797 63 65 63V65H80V35Z" fill="white"/>
<path d="M65 35V34.9H64.9V35H65ZM80 35H80.1V34.9H80V35ZM65 37H64.9V37.1H65V37ZM65 63V62.9H64.9V63H65ZM65 65H64.9V65.1H65V65ZM80 65V65.1H80.1V65H80ZM65 35.1H80V34.9H65V35.1ZM65.1 37V35H64.9V37H65.1ZM65 37.1C72.1245 37.1 77.9 42.8755 77.9 50H78.1C78.1 42.7651 72.2349 36.9 65 36.9V37.1ZM77.9 50C77.9 57.1245 72.1245 62.9 65 62.9V63.1C72.2349 63.1 78.1 57.2349 78.1 50H77.9ZM65.1 65V63H64.9V65H65.1ZM80 64.9H65V65.1H80V64.9ZM79.9 35V65H80.1V35H79.9Z" fill="#EEEEEE"/>
<path fill-rule="evenodd" clip-rule="evenodd" d="M80 65H95V63C87.8203 63 82 57.1797 82 50C82 42.8203 87.8203 37 95 37V35L80 35V65Z" fill="white"/>
<path d="M95 65V65.1H95.1V65H95ZM80 65H79.9V65.1H80V65ZM95 63H95.1V62.9H95V63ZM95 37V37.1H95.1V37H95ZM95 35H95.1V34.9H95V35ZM80 35V34.9H79.9V35H80ZM95 64.9H80V65.1H95V64.9ZM94.9 63V65H95.1V63H94.9ZM95 62.9C87.8755 62.9 82.1 57.1245 82.1 50H81.9C81.9 57.2349 87.7651 63.1 95 63.1V62.9ZM82.1 50C82.1 42.8755 87.8755 37.1 95 37.1V36.9C87.7651 36.9 81.9 42.7651 81.9 50H82.1ZM94.9 35V37H95.1V35H94.9ZM80 35.1L95 35.1V34.9L80 34.9V35.1ZM80.1 65V35H79.9V65H80.1Z" fill="#EEEEEE"/>
<path fill-rule="evenodd" clip-rule="evenodd" d="M54 35H65V46V47C63.3431 47 62 48.3431 62 50C62 51.6569 63.3431 53 65 53V54V65H54H46H35V54V53C36.6569 53 38 51.6569 38 50C38 48.3431 36.6569 47 35 47V46V35H46H54ZM62.373 46C61.093 42.0376 57.9624 38.907 54 37.627V46H62.373ZM54 54H62.373C61.093 57.9624 57.9624 61.093 54 62.373V54ZM53 54V46V40C53 38.3431 51.6569 37 50 37C48.3431 37 47 38.3431 47 40V46V54V60C47 61.6569 48.3431 63 50 63C51.6569 63 53 61.6569 53 60V54ZM54 50C54 48.3431 55.3431 47 57 47C58.6569 47 60 48.3431 60 50C60 51.6569 58.6569 53 57 53C55.3431 53 54 51.6569 54 50ZM46 62.373C42.0376 61.093 38.907 57.9624 37.627 54H46V62.373ZM37.627 46H46V37.627C42.0376 38.907 38.907 42.0376 37.627 46ZM43 53C44.6569 53 46 51.6569 46 50C46 48.3431 44.6569 47 43 47C41.3431 47 40 48.3431 40 50C40 51.6569 41.3431 53 43 53Z" fill="white"/>
<path d="M65 35H65.1V34.9H65V35ZM65 47V47.1H65.1V47H65ZM65 53H65.1V52.9H65V53ZM65 65V65.1H65.1V65H65ZM35 65H34.9V65.1H35V65ZM35 53V52.9H34.9V53H35ZM35 47H34.9V47.1H35V47ZM35 35V34.9H34.9V35H35ZM54 37.627L54.0307 37.5318L53.9 37.4896V37.627H54ZM62.373 46V46.1H62.5104L62.4682 45.9693L62.373 46ZM54 46H53.9V46.1H54V46ZM62.373 54L62.4682 54.0307L62.5104 53.9H62.373V54ZM54 54V53.9H53.9V54H54ZM54 62.373H53.9V62.5104L54.0307 62.4682L54 62.373ZM37.627 54V53.9H37.4896L37.5318 54.0307L37.627 54ZM46 62.373L45.9693 62.4682L46.1 62.5104V62.373H46ZM46 54H46.1V53.9H46V54ZM46 46V46.1H46.1V46H46ZM37.627 46L37.5318 45.9693L37.4896 46.1H37.627V46ZM46 37.627H46.1V37.4896L45.9693 37.5318L46 37.627ZM65 34.9H54V35.1H65V34.9ZM65.1 46V35H64.9V46H65.1ZM65.1 47V46H64.9V47H65.1ZM62.1 50C62.1 48.3984 63.3984 47.1 65 47.1V46.9C63.2879 46.9 61.9 48.2879 61.9 50H62.1ZM65 52.9C63.3984 52.9 62.1 51.6016 62.1 50H61.9C61.9 51.7121 63.2879 53.1 65 53.1V52.9ZM65.1 54V53H64.9V54H65.1ZM65.1 65V54H64.9V65H65.1ZM54 65.1H65V64.9H54V65.1ZM46 65.1H54V64.9H46V65.1ZM35 65.1H46V64.9H35V65.1ZM34.9 54V65H35.1V54H34.9ZM34.9 53V54H35.1V53H34.9ZM37.9 50C37.9 51.6016 36.6016 52.9 35 52.9V53.1C36.7121 53.1 38.1 51.7121 38.1 50H37.9ZM35 47.1C36.6016 47.1 37.9 48.3984 37.9 50H38.1C38.1 48.2879 36.7121 46.9 35 46.9V47.1ZM34.9 46V47H35.1V46H34.9ZM34.9 35V46H35.1V35H34.9ZM46 34.9H35V35.1H46V34.9ZM54 34.9H46V35.1H54V34.9ZM53.9693 37.7222C57.9011 38.9923 61.0077 42.0989 62.2778 46.0307L62.4682 45.9693C61.1782 41.9763 58.0237 38.8218 54.0307 37.5318L53.9693 37.7222ZM54.1 46V37.627H53.9V46H54.1ZM62.373 45.9H54V46.1H62.373V45.9ZM62.373 53.9H54V54.1H62.373V53.9ZM54.0307 62.4682C58.0237 61.1782 61.1782 58.0237 62.4682 54.0307L62.2778 53.9693C61.0077 57.9011 57.9011 61.0077 53.9693 62.2778L54.0307 62.4682ZM53.9 54V62.373H54.1V54H53.9ZM52.9 46V54H53.1V46H52.9ZM52.9 40V46H53.1V40H52.9ZM50 37.1C51.6016 37.1 52.9 38.3984 52.9 40H53.1C53.1 38.2879 51.7121 36.9 50 36.9V37.1ZM47.1 40C47.1 38.3984 48.3984 37.1 50 37.1V36.9C48.2879 36.9 46.9 38.2879 46.9 40H47.1ZM47.1 46V40H46.9V46H47.1ZM47.1 54V46H46.9V54H47.1ZM47.1 60V54H46.9V60H47.1ZM50 62.9C48.3984 62.9 47.1 61.6016 47.1 60H46.9C46.9 61.7121 48.2879 63.1 50 63.1V62.9ZM52.9 60C52.9 61.6016 51.6016 62.9 50 62.9V63.1C51.7121 63.1 53.1 61.7121 53.1 60H52.9ZM52.9 54V60H53.1V54H52.9ZM57 46.9C55.2879 46.9 53.9 48.2879 53.9 50H54.1C54.1 48.3984 55.3984 47.1 57 47.1V46.9ZM60.1 50C60.1 48.2879 58.7121 46.9 57 46.9V47.1C58.6016 47.1 59.9 48.3984 59.9 50H60.1ZM57 53.1C58.7121 53.1 60.1 51.7121 60.1 50H59.9C59.9 51.6016 58.6016 52.9 57 52.9V53.1ZM53.9 50C53.9 51.7121 55.2879 53.1 57 53.1V52.9C55.3984 52.9 54.1 51.6016 54.1 50H53.9ZM37.5318 54.0307C38.8218 58.0237 41.9763 61.1782 45.9693 62.4682L46.0307 62.2778C42.0989 61.0077 38.9923 57.9011 37.7222 53.9693L37.5318 54.0307ZM46 53.9H37.627V54.1H46V53.9ZM46.1 62.373V54H45.9V62.373H46.1ZM46 45.9H37.627V46.1H46V45.9ZM45.9 37.627V46H46.1V37.627H45.9ZM37.7222 46.0307C38.9923 42.0989 42.0989 38.9923 46.0307 37.7222L45.9693 37.5318C41.9763 38.8218 38.8218 41.9763 37.5318 45.9693L37.7222 46.0307ZM45.9 50C45.9 51.6016 44.6016 52.9 43 52.9V53.1C44.7121 53.1 46.1 51.7121 46.1 50H45.9ZM43 47.1C44.6016 47.1 45.9 48.3984 45.9 50H46.1C46.1 48.2879 44.7121 46.9 43 46.9V47.1ZM40.1 50C40.1 48.3984 41.3984 47.1 43 47.1V46.9C41.2879 46.9 39.9 48.2879 39.9 50H40.1ZM43 52.9C41.3984 52.9 40.1 51.6016 40.1 50H39.9C39.9 51.7121 41.2879 53.1 43 53.1V52.9Z" fill="#EEEEEE"/>
</svg>
