<svg width="26" height="26" viewBox="0 0 26 26" fill="none" xmlns="http://www.w3.org/2000/svg">
<path d="M12.9981 7.03575C11.8189 7.03575 10.6661 7.38544 9.68561 8.04059C8.7051 8.69575 7.94089 9.62695 7.48961 10.7164C7.03833 11.8059 6.92026 13.0048 7.15032 14.1613C7.38038 15.3179 7.94824 16.3803 8.78209 17.2142C9.61595 18.048 10.6783 18.6159 11.8349 18.846C12.9915 19.076 14.1904 18.9579 15.2798 18.5067C16.3693 18.0554 17.3005 17.2912 17.9557 16.3107C18.6108 15.3302 18.9605 14.1774 18.9605 12.9981C18.9589 11.4173 18.3302 9.90172 17.2124 8.78391C16.0946 7.6661 14.579 7.03739 12.9981 7.03575ZM12.9981 16.9731C12.212 16.9731 11.4435 16.7399 10.7898 16.3032C10.1361 15.8664 9.62664 15.2456 9.32579 14.5193C9.02493 13.793 8.94622 12.9937 9.09959 12.2227C9.25296 11.4516 9.63154 10.7433 10.1874 10.1874C10.7433 9.63154 11.4516 9.25296 12.2227 9.09959C12.9937 8.94622 13.793 9.02493 14.5193 9.32579C15.2456 9.62664 15.8664 10.1361 16.3032 10.7898C16.7399 11.4435 16.9731 12.212 16.9731 12.9981C16.9731 14.0524 16.5543 15.0634 15.8088 15.8088C15.0634 16.5543 14.0524 16.9731 12.9981 16.9731ZM23.9292 13.2664C23.9341 13.0876 23.9341 12.9087 23.9292 12.7298L25.7825 10.4144C25.8797 10.2929 25.9469 10.1502 25.9789 9.99785C26.0108 9.84552 26.0065 9.68783 25.9663 9.53747C25.6625 8.39542 25.208 7.2989 24.6149 6.27679C24.5372 6.14303 24.4294 6.02925 24.3 5.9445C24.1706 5.85975 24.0232 5.80637 23.8696 5.78862L20.9231 5.46069C20.8006 5.3315 20.6764 5.20729 20.5505 5.08804L20.2027 2.13417C20.1848 1.98041 20.1312 1.83295 20.0463 1.70355C19.9613 1.57415 19.8473 1.4664 19.7133 1.38887C18.6908 0.796792 17.5943 0.342766 16.4526 0.0386414C16.3021 -0.00136009 16.1444 -0.00545141 15.9921 0.0266971C15.8397 0.0588457 15.6971 0.126335 15.5756 0.223724L13.2664 2.06709C13.0876 2.06709 12.9087 2.06709 12.7298 2.06709L10.4144 0.217513C10.2929 0.120336 10.1502 0.0530728 9.99785 0.0211408C9.84552 -0.0107912 9.68783 -0.00649873 9.53747 0.0336726C8.39561 0.338037 7.29916 0.79249 6.27679 1.38515C6.14303 1.46281 6.02925 1.57063 5.9445 1.70002C5.85975 1.82941 5.80637 1.97679 5.78862 2.13045L5.46069 5.08183C5.3315 5.20521 5.20729 5.32943 5.08804 5.45448L2.13417 5.79359C1.98041 5.81148 1.83295 5.86504 1.70355 5.95001C1.57415 6.03498 1.4664 6.14901 1.38887 6.283C0.796792 7.3055 0.342766 8.40193 0.0386414 9.54368C-0.00136009 9.69414 -0.00545141 9.85189 0.0266971 10.0042C0.0588457 10.1565 0.126335 10.2992 0.223724 10.4206L2.06709 12.7298C2.06709 12.9087 2.06709 13.0876 2.06709 13.2664L0.217513 15.5818C0.120336 15.7034 0.0530728 15.8461 0.0211408 15.9984C-0.0107912 16.1507 -0.00649873 16.3084 0.0336726 16.4588C0.337493 17.6008 0.791975 18.6974 1.38515 19.7195C1.46281 19.8532 1.57063 19.967 1.70002 20.0518C1.82941 20.1365 1.97679 20.1899 2.13045 20.2077L5.07686 20.5356C5.20025 20.6648 5.32446 20.789 5.44951 20.9082L5.79359 23.8621C5.81148 24.0159 5.86504 24.1633 5.95001 24.2927C6.03498 24.4221 6.14901 24.5299 6.283 24.6074C7.3055 25.1995 8.40193 25.6535 9.54368 25.9576C9.69414 25.9976 9.85189 26.0017 10.0042 25.9696C10.1565 25.9374 10.2992 25.8699 10.4206 25.7726L12.7298 23.9292C12.9087 23.9341 13.0876 23.9341 13.2664 23.9292L15.5818 25.7825C15.7034 25.8797 15.8461 25.9469 15.9984 25.9789C16.1507 26.0108 16.3084 26.0065 16.4588 25.9663C17.6008 25.6625 18.6974 25.208 19.7195 24.6149C19.8532 24.5372 19.967 24.4294 20.0518 24.3C20.1365 24.1706 20.1899 24.0232 20.2077 23.8696L20.5356 20.9231C20.6648 20.8006 20.789 20.6764 20.9082 20.5505L23.8621 20.2027C24.0159 20.1848 24.1633 20.1312 24.2927 20.0463C24.4221 19.9613 24.5299 19.8473 24.6074 19.7133C25.1995 18.6908 25.6535 17.5943 25.9576 16.4526C25.9976 16.3021 26.0017 16.1444 25.9696 15.9921C25.9374 15.8397 25.8699 15.6971 25.7726 15.5756L23.9292 13.2664ZM21.9293 12.459C21.9504 12.8181 21.9504 13.1781 21.9293 13.5372C21.9145 13.7831 21.9915 14.0257 22.1454 14.2179L23.9081 16.4203C23.7058 17.0631 23.4468 17.6866 23.1342 18.2835L20.3269 18.6015C20.0824 18.6287 19.8567 18.7455 19.6934 18.9295C19.4543 19.1984 19.1996 19.4531 18.9307 19.6922C18.7468 19.8555 18.6299 20.0812 18.6028 20.3257L18.291 23.1305C17.6941 23.4433 17.0706 23.7022 16.4278 23.9043L14.2242 22.1417C14.0478 22.0008 13.8288 21.9242 13.6031 21.9243H13.5434C13.1844 21.9454 12.8243 21.9454 12.4652 21.9243C12.2194 21.9095 11.9768 21.9866 11.7845 22.1405L9.57598 23.9043C8.9332 23.7021 8.30966 23.4431 7.71273 23.1305L7.39474 20.3269C7.3676 20.0824 7.25075 19.8567 7.0668 19.6934C6.79789 19.4543 6.54322 19.1996 6.30412 18.9307C6.14081 18.7468 5.91509 18.6299 5.67061 18.6028L2.86581 18.2898C2.55302 17.6929 2.29404 17.0693 2.09194 16.4265L3.85457 14.2229C4.00848 14.0306 4.0855 13.7881 4.07071 13.5422C4.04959 13.1831 4.04959 12.8231 4.07071 12.464C4.0855 12.2182 4.00848 11.9756 3.85457 11.7833L2.09194 9.57598C2.29419 8.9332 2.55317 8.30966 2.86581 7.71273L5.66937 7.39474C5.91385 7.3676 6.13957 7.25075 6.30287 7.0668C6.54198 6.79789 6.79664 6.54322 7.06556 6.30412C7.25024 6.14071 7.36757 5.91447 7.39474 5.66937L7.70652 2.86581C8.30338 2.55302 8.92693 2.29404 9.56977 2.09194L11.7734 3.85457C11.9656 4.00848 12.2082 4.0855 12.4541 4.07071C12.8132 4.04959 13.1732 4.04959 13.5323 4.07071C13.7781 4.0855 14.0207 4.00848 14.213 3.85457L16.4203 2.09194C17.0631 2.29419 17.6866 2.55317 18.2835 2.86581L18.6015 5.66937C18.6287 5.91385 18.7455 6.13957 18.9295 6.30287C19.1984 6.54198 19.4531 6.79664 19.6922 7.06556C19.8555 7.24951 20.0812 7.36636 20.3257 7.39349L23.1305 7.70528C23.4433 8.30214 23.7022 8.92569 23.9043 9.56852L22.1417 11.7721C21.9863 11.966 21.9092 12.2111 21.9256 12.459H21.9293Z" fill="#777777"/>
</svg>
